<?xml version="1.0" encoding="UTF-8"?>
<svg width="117px" height="17px" viewBox="0 0 117 17" version="1.1" xmlns="http://www.w3.org/2000/svg" xmlns:xlink="http://www.w3.org/1999/xlink">
    <!-- Generator: Sketch 46.2 (44496) - http://www.bohemiancoding.com/sketch -->
    <title>カイトリ メニュー</title>
    <desc>Created with Sketch.</desc>
    <defs></defs>
    <g id="PC" stroke="none" stroke-width="1" fill="none" fill-rule="evenodd">
        <g id="top1-copy" transform="translate(-813.000000, -819.000000)" fill="#FFFFFF">
            <path d="M814.606899,834.192418 L815.326385,826.757729 L813.561931,826.894774 L813.390625,822.252376 L815.600475,822.320898 L815.754651,820.042525 L820.636878,819.939742 L820.448441,822.200984 L826.76964,821.944024 L826.649726,834.432247 L821.664715,833.849806 L822.024458,826.740598 L820.037306,826.706337 L819.506257,834.415116 L814.606899,834.192418 Z M832.786675,833.524324 L832.409802,828.350877 L829.34342,829.327322 L827.68175,824.530748 L838.43978,820.556444 L840.563977,825.764153 L837.257767,826.997558 L837.823078,833.164581 L832.786675,833.524324 Z M847.35189,834.689206 L841.83583,834.757729 L841.407565,819.305909 L846.752319,819.203125 L846.872233,824.136744 L853.501783,823.811262 L853.741612,829.156016 L847.266237,829.464367 L847.35189,834.689206 Z M865.685842,834.346594 L860.512395,832.976144 L861.917106,819.682782 L866.936378,819.579999 L865.685842,834.346594 Z M854.687984,829.087493 L854.722245,819.545737 L859.450296,819.751305 L859.450296,828.607836 L854.687984,829.087493 Z M880.597857,834.432247 L876.863382,830.988992 L880.769163,826.997558 L877.411562,824.273789 L880.546465,820.248093 L884.26381,823.160298 L887.347322,819.408692 L891.253103,822.149592 L888.032547,826.24381 L891.321626,828.796273 L887.964024,833.181712 L884.400855,830.286637 L880.597857,834.432247 Z M892.302259,833.40441 L892.302259,828.933318 L906.589197,828.933318 L906.589197,833.40441 L892.302259,833.40441 Z M893.792623,824.976144 L893.792623,820.556444 L905.098832,820.556444 L905.098832,824.976144 L893.792623,824.976144 Z M919.150129,835.203125 L907.432784,834.860513 L907.724005,830.766294 L912.092313,830.851947 L912.589101,829.121755 L908.563405,829.00184 L908.374968,824.85623 L917.950986,825.044667 L917.043063,831.091776 L918.876039,831.108907 L919.150129,835.203125 Z M920.250676,829.738457 L919.925194,824.616401 L929.621126,824.03396 L929.946608,829.138885 L920.250676,829.738457 Z" id="カイトリ-メニュー"></path>
        </g>
    </g>
</svg>