<svg width="146" height="44" viewBox="0 0 146 44" xmlns="http://www.w3.org/2000/svg"><title>カイトリ</title><path d="M3.5 41.625l1.969-20.344-4.828.375L.17 8.953l6.048.188.422-6.235L20 2.625l-.516 6.188 17.297-.704-.328 34.172-13.64-1.593.984-19.454-5.438-.093-1.453 21.093L3.5 41.625zm49.313-1.828L51.78 25.64l-8.39 2.672-4.547-13.125L68.28 4.312l5.813 14.25-9.047 3.375 1.547 16.875-13.781.985zm39.421 3.187l-15.093.188L75.969.89 90.594.609l.328 13.5 18.14-.89.657 14.625L92 28.687l.234 14.297zm49.735-.937l-14.156-3.75 3.843-36.375 13.735-.281-3.422 40.406zm-30.094-14.39l.094-26.11 12.937.562v24.235l-13.031 1.312z" fill="#FE554B" fill-rule="evenodd"/></svg>