<?xml version="1.0" encoding="UTF-8"?>
<svg width="14px" height="14px" viewBox="0 0 14 14" version="1.1" xmlns="http://www.w3.org/2000/svg" xmlns:xlink="http://www.w3.org/1999/xlink">
    <!-- Generator: Sketch 46.1 (44463) - http://www.bohemiancoding.com/sketch -->
    <title>Shape</title>
    <desc>Created with Sketch.</desc>
    <defs></defs>
    <g id="Symbols" stroke="none" stroke-width="1" fill="none" fill-rule="evenodd">
        <g id="リクエスト/pc/time" transform="translate(-6.000000, -205.000000)" fill-rule="nonzero" fill="#FFFFFF">
            <g id="Group" transform="translate(0.000000, 198.000000)">
                <g id="time" transform="translate(4.000000, 5.000000)">
                    <path d="M8.25,12.75 C8.25,13.1625 8.5875,13.5 9,13.5 C9.4125,13.5 9.75,13.1625 9.75,12.75 C9.75,12.3375 9.4125,12 9,12 C8.5875,12 8.25,12.3375 8.25,12.75 Z M8.25,2.25 L8.25,5.25 L9.75,5.25 L9.75,3.81 C12.2925,4.1775 14.25,6.3525 14.25,9 C14.25,11.9025 11.9025,14.25 9,14.25 C6.0975,14.25 3.75,11.9025 3.75,9 C3.75,7.74 4.1925,6.585 4.935,5.685 L9,9.75 L10.0575,8.6925 L4.9575,3.5925 L4.9575,3.6075 C3.315,4.8375 2.25,6.7875 2.25,9 C2.25,12.7275 5.265,15.75 9,15.75 C12.7275,15.75 15.75,12.7275 15.75,9 C15.75,5.2725 12.7275,2.25 9,2.25 L8.25,2.25 Z M13.5,9 C13.5,8.5875 13.1625,8.25 12.75,8.25 C12.3375,8.25 12,8.5875 12,9 C12,9.4125 12.3375,9.75 12.75,9.75 C13.1625,9.75 13.5,9.4125 13.5,9 Z M4.5,9 C4.5,9.4125 4.8375,9.75 5.25,9.75 C5.6625,9.75 6,9.4125 6,9 C6,8.5875 5.6625,8.25 5.25,8.25 C4.8375,8.25 4.5,8.5875 4.5,9 Z" id="Shape"></path>
                </g>
            </g>
        </g>
    </g>
</svg>